<mxfile host="Electron" modified="2025-01-31T15:48:00.558Z" agent="Mozilla/5.0 (X11; Linux x86_64) AppleWebKit/537.36 (KHTML, like Gecko) draw.io/21.7.5 Chrome/114.0.5735.289 Electron/25.8.1 Safari/537.36" etag="jSddEN35Aon-c_aW9Ygd" version="21.7.5" type="device">
  <diagram name="Page-1" id="mT3KLonHiAo77rmEHefQ">
    <mxGraphModel dx="1323" dy="1191" grid="1" gridSize="10" guides="1" tooltips="1" connect="1" arrows="1" fold="1" page="1" pageScale="1" pageWidth="827" pageHeight="1169" math="0" shadow="0">
      <root>
        <mxCell id="0" />
        <mxCell id="1" parent="0" />
        <mxCell id="RDQSzWo8FJggzqwJXyAk-1" value="req [Paquet] Exigences system" style="shape=umlFrame;whiteSpace=wrap;html=1;pointerEvents=0;recursiveResize=0;container=1;collapsible=0;width=210;height=30;" parent="1" vertex="1">
          <mxGeometry x="20" y="30" width="1830" height="800" as="geometry" />
        </mxCell>
        <mxCell id="RDQSzWo8FJggzqwJXyAk-2" value="&amp;lt;&amp;lt;requirement&amp;gt;&amp;gt;&lt;br&gt;&lt;b&gt;Exigences Fonctionnelles&lt;/b&gt;" style="swimlane;fontStyle=0;align=center;verticalAlign=top;childLayout=stackLayout;horizontal=1;startSize=40;horizontalStack=0;resizeParent=1;resizeParentMax=0;resizeLast=0;collapsible=0;marginBottom=0;html=1;whiteSpace=wrap;" parent="RDQSzWo8FJggzqwJXyAk-1" vertex="1">
          <mxGeometry x="890" y="40" width="180" height="90" as="geometry" />
        </mxCell>
        <mxCell id="RDQSzWo8FJggzqwJXyAk-3" value="Id = &quot;1&quot;&lt;br&gt;Text = &quot; &quot;" style="text;html=1;strokeColor=none;fillColor=none;align=left;verticalAlign=middle;spacingLeft=4;spacingRight=4;overflow=hidden;rotatable=0;points=[[0,0.5],[1,0.5]];portConstraint=eastwest;whiteSpace=wrap;" parent="RDQSzWo8FJggzqwJXyAk-2" vertex="1">
          <mxGeometry y="40" width="180" height="50" as="geometry" />
        </mxCell>
        <mxCell id="RDQSzWo8FJggzqwJXyAk-20" value="&amp;lt;&amp;lt;requirement&amp;gt;&amp;gt;&lt;br&gt;&lt;b&gt;Mesures des paramètres&lt;/b&gt;" style="swimlane;fontStyle=0;align=center;verticalAlign=top;childLayout=stackLayout;horizontal=1;startSize=50;horizontalStack=0;resizeParent=1;resizeParentMax=0;resizeLast=0;collapsible=0;marginBottom=0;html=1;whiteSpace=wrap;" parent="RDQSzWo8FJggzqwJXyAk-1" vertex="1">
          <mxGeometry x="214" y="90" width="180" height="100" as="geometry" />
        </mxCell>
        <mxCell id="RDQSzWo8FJggzqwJXyAk-21" value="Id = &quot;1.1&quot;&lt;br&gt;Text = &quot; &quot;" style="text;html=1;strokeColor=none;fillColor=none;align=left;verticalAlign=middle;spacingLeft=4;spacingRight=4;overflow=hidden;rotatable=0;points=[[0,0.5],[1,0.5]];portConstraint=eastwest;whiteSpace=wrap;" parent="RDQSzWo8FJggzqwJXyAk-20" vertex="1">
          <mxGeometry y="50" width="180" height="50" as="geometry" />
        </mxCell>
        <mxCell id="RDQSzWo8FJggzqwJXyAk-22" value="" style="endArrow=open;startArrow=circlePlus;endFill=0;startFill=0;endSize=8;html=1;rounded=0;exitX=0;exitY=0.5;exitDx=0;exitDy=0;entryX=0.5;entryY=0;entryDx=0;entryDy=0;" parent="RDQSzWo8FJggzqwJXyAk-1" source="RDQSzWo8FJggzqwJXyAk-3" target="RDQSzWo8FJggzqwJXyAk-20" edge="1">
          <mxGeometry width="160" relative="1" as="geometry">
            <mxPoint x="570" y="380" as="sourcePoint" />
            <mxPoint x="730" y="380" as="targetPoint" />
          </mxGeometry>
        </mxCell>
        <mxCell id="RDQSzWo8FJggzqwJXyAk-25" value="&amp;lt;&amp;lt;requirement&amp;gt;&amp;gt;&lt;br&gt;&lt;strong&gt;Affichage graphique&lt;/strong&gt;" style="swimlane;fontStyle=0;align=center;verticalAlign=top;childLayout=stackLayout;horizontal=1;startSize=50;horizontalStack=0;resizeParent=1;resizeParentMax=0;resizeLast=0;collapsible=0;marginBottom=0;html=1;whiteSpace=wrap;" parent="RDQSzWo8FJggzqwJXyAk-1" vertex="1">
          <mxGeometry x="800" y="220" width="180" height="100" as="geometry" />
        </mxCell>
        <mxCell id="RDQSzWo8FJggzqwJXyAk-26" value="Id = &quot;1.2&quot;&lt;br&gt;Text = &quot;Affichage des paramètres&quot;&amp;nbsp;" style="text;html=1;strokeColor=none;fillColor=none;align=left;verticalAlign=middle;spacingLeft=4;spacingRight=4;overflow=hidden;rotatable=0;points=[[0,0.5],[1,0.5]];portConstraint=eastwest;whiteSpace=wrap;" parent="RDQSzWo8FJggzqwJXyAk-25" vertex="1">
          <mxGeometry y="50" width="180" height="50" as="geometry" />
        </mxCell>
        <mxCell id="RDQSzWo8FJggzqwJXyAk-28" value="" style="endArrow=open;startArrow=circlePlus;endFill=0;startFill=0;endSize=8;html=1;rounded=0;exitX=0.196;exitY=1.072;exitDx=0;exitDy=0;exitPerimeter=0;entryX=0.5;entryY=0;entryDx=0;entryDy=0;" parent="RDQSzWo8FJggzqwJXyAk-1" source="RDQSzWo8FJggzqwJXyAk-3" target="RDQSzWo8FJggzqwJXyAk-25" edge="1">
          <mxGeometry width="160" relative="1" as="geometry">
            <mxPoint x="570" y="380" as="sourcePoint" />
            <mxPoint x="730" y="380" as="targetPoint" />
          </mxGeometry>
        </mxCell>
        <mxCell id="RDQSzWo8FJggzqwJXyAk-31" value="&amp;lt;&amp;lt;requirement&amp;gt;&amp;gt;&lt;br&gt;&lt;b&gt;Stockage de données&lt;/b&gt;" style="swimlane;fontStyle=0;align=center;verticalAlign=top;childLayout=stackLayout;horizontal=1;startSize=50;horizontalStack=0;resizeParent=1;resizeParentMax=0;resizeLast=0;collapsible=0;marginBottom=0;html=1;whiteSpace=wrap;" parent="RDQSzWo8FJggzqwJXyAk-1" vertex="1">
          <mxGeometry x="1020" y="230" width="180" height="100" as="geometry" />
        </mxCell>
        <mxCell id="RDQSzWo8FJggzqwJXyAk-32" value="Id = &quot;1.3&quot;&lt;br&gt;Text = &quot;Stockage des paramètres récupérés&quot;" style="text;html=1;strokeColor=none;fillColor=none;align=left;verticalAlign=middle;spacingLeft=4;spacingRight=4;overflow=hidden;rotatable=0;points=[[0,0.5],[1,0.5]];portConstraint=eastwest;whiteSpace=wrap;" parent="RDQSzWo8FJggzqwJXyAk-31" vertex="1">
          <mxGeometry y="50" width="180" height="50" as="geometry" />
        </mxCell>
        <mxCell id="RDQSzWo8FJggzqwJXyAk-33" value="&amp;lt;&amp;lt;requirement&amp;gt;&amp;gt;&lt;br&gt;&lt;b&gt;Transmission via onde&lt;/b&gt;" style="swimlane;fontStyle=0;align=center;verticalAlign=top;childLayout=stackLayout;horizontal=1;startSize=50;horizontalStack=0;resizeParent=1;resizeParentMax=0;resizeLast=0;collapsible=0;marginBottom=0;html=1;whiteSpace=wrap;" parent="RDQSzWo8FJggzqwJXyAk-1" vertex="1">
          <mxGeometry x="1221" y="180" width="180" height="110" as="geometry" />
        </mxCell>
        <mxCell id="RDQSzWo8FJggzqwJXyAk-34" value="Id = &quot;1.4&quot;&lt;br&gt;Text = &quot;Transmission des paramètres&quot;" style="text;html=1;strokeColor=none;fillColor=none;align=left;verticalAlign=middle;spacingLeft=4;spacingRight=4;overflow=hidden;rotatable=0;points=[[0,0.5],[1,0.5]];portConstraint=eastwest;whiteSpace=wrap;" parent="RDQSzWo8FJggzqwJXyAk-33" vertex="1">
          <mxGeometry y="50" width="180" height="60" as="geometry" />
        </mxCell>
        <mxCell id="RDQSzWo8FJggzqwJXyAk-35" value="&amp;lt;&amp;lt;requirement&amp;gt;&amp;gt;&lt;br&gt;&lt;b&gt;Système alertes&lt;/b&gt;" style="swimlane;fontStyle=0;align=center;verticalAlign=top;childLayout=stackLayout;horizontal=1;startSize=50;horizontalStack=0;resizeParent=1;resizeParentMax=0;resizeLast=0;collapsible=0;marginBottom=0;html=1;whiteSpace=wrap;" parent="RDQSzWo8FJggzqwJXyAk-1" vertex="1">
          <mxGeometry x="1634" y="40" width="180" height="100" as="geometry" />
        </mxCell>
        <mxCell id="RDQSzWo8FJggzqwJXyAk-36" value="Id = &quot;1.5&quot;&lt;br&gt;Text = &quot;Alerte si seuil dépasser&quot;" style="text;html=1;strokeColor=none;fillColor=none;align=left;verticalAlign=middle;spacingLeft=4;spacingRight=4;overflow=hidden;rotatable=0;points=[[0,0.5],[1,0.5]];portConstraint=eastwest;whiteSpace=wrap;" parent="RDQSzWo8FJggzqwJXyAk-35" vertex="1">
          <mxGeometry y="50" width="180" height="50" as="geometry" />
        </mxCell>
        <mxCell id="RDQSzWo8FJggzqwJXyAk-40" value="" style="endArrow=open;startArrow=circlePlus;endFill=0;startFill=0;endSize=8;html=1;rounded=0;entryX=0.5;entryY=0;entryDx=0;entryDy=0;exitX=0.448;exitY=1.051;exitDx=0;exitDy=0;exitPerimeter=0;" parent="RDQSzWo8FJggzqwJXyAk-1" source="RDQSzWo8FJggzqwJXyAk-3" target="RDQSzWo8FJggzqwJXyAk-31" edge="1">
          <mxGeometry width="160" relative="1" as="geometry">
            <mxPoint x="1104" y="122" as="sourcePoint" />
            <mxPoint x="800" y="250" as="targetPoint" />
          </mxGeometry>
        </mxCell>
        <mxCell id="RDQSzWo8FJggzqwJXyAk-41" value="" style="endArrow=open;startArrow=circlePlus;endFill=0;startFill=0;endSize=8;html=1;rounded=0;exitX=1.009;exitY=0.998;exitDx=0;exitDy=0;exitPerimeter=0;entryX=0.25;entryY=0;entryDx=0;entryDy=0;" parent="RDQSzWo8FJggzqwJXyAk-1" source="RDQSzWo8FJggzqwJXyAk-3" target="RDQSzWo8FJggzqwJXyAk-33" edge="1">
          <mxGeometry width="160" relative="1" as="geometry">
            <mxPoint x="1410" y="130" as="sourcePoint" />
            <mxPoint x="1130" y="246" as="targetPoint" />
          </mxGeometry>
        </mxCell>
        <mxCell id="RDQSzWo8FJggzqwJXyAk-42" value="" style="endArrow=open;startArrow=circlePlus;endFill=0;startFill=0;endSize=8;html=1;rounded=0;exitX=1.004;exitY=0.04;exitDx=0;exitDy=0;exitPerimeter=0;entryX=-0.009;entryY=0.023;entryDx=0;entryDy=0;entryPerimeter=0;" parent="RDQSzWo8FJggzqwJXyAk-1" source="RDQSzWo8FJggzqwJXyAk-3" target="RDQSzWo8FJggzqwJXyAk-36" edge="1">
          <mxGeometry width="160" relative="1" as="geometry">
            <mxPoint x="1100" y="154" as="sourcePoint" />
            <mxPoint x="820" y="270" as="targetPoint" />
          </mxGeometry>
        </mxCell>
        <mxCell id="GN8UNdKCPaGdzjbhuaC8-1" value="&amp;lt;&amp;lt;requirement&amp;gt;&amp;gt;&lt;br&gt;&lt;b&gt;Mesures de débit d&#39;aspiration&amp;nbsp;&lt;/b&gt;" style="swimlane;fontStyle=0;align=center;verticalAlign=top;childLayout=stackLayout;horizontal=1;startSize=50;horizontalStack=0;resizeParent=1;resizeParentMax=0;resizeLast=0;collapsible=0;marginBottom=0;html=1;whiteSpace=wrap;" parent="RDQSzWo8FJggzqwJXyAk-1" vertex="1">
          <mxGeometry x="40" y="260" width="180" height="140" as="geometry" />
        </mxCell>
        <mxCell id="GN8UNdKCPaGdzjbhuaC8-2" value="Id = &quot;1.1.1&quot;&lt;br&gt;Text = &quot;Mesure de débit des fumées : plage 100 000 à 500 000 Nm³/h&quot;" style="text;html=1;strokeColor=none;fillColor=none;align=left;verticalAlign=middle;spacingLeft=4;spacingRight=4;overflow=hidden;rotatable=0;points=[[0,0.5],[1,0.5]];portConstraint=eastwest;whiteSpace=wrap;" parent="GN8UNdKCPaGdzjbhuaC8-1" vertex="1">
          <mxGeometry y="50" width="180" height="90" as="geometry" />
        </mxCell>
        <mxCell id="GN8UNdKCPaGdzjbhuaC8-3" value="&amp;lt;&amp;lt;requirement&amp;gt;&amp;gt;&lt;br&gt;&lt;b&gt;Régulation température&lt;/b&gt;" style="swimlane;fontStyle=0;align=center;verticalAlign=top;childLayout=stackLayout;horizontal=1;startSize=50;horizontalStack=0;resizeParent=1;resizeParentMax=0;resizeLast=0;collapsible=0;marginBottom=0;html=1;whiteSpace=wrap;" parent="RDQSzWo8FJggzqwJXyAk-1" vertex="1">
          <mxGeometry x="1440" y="160" width="180" height="140" as="geometry" />
        </mxCell>
        <mxCell id="GN8UNdKCPaGdzjbhuaC8-4" value="Id = &quot;1.5&quot;&lt;br&gt;Text = &quot;Système de régulation de température avant sortie de fumés&quot;" style="text;html=1;strokeColor=none;fillColor=none;align=left;verticalAlign=middle;spacingLeft=4;spacingRight=4;overflow=hidden;rotatable=0;points=[[0,0.5],[1,0.5]];portConstraint=eastwest;whiteSpace=wrap;" parent="GN8UNdKCPaGdzjbhuaC8-3" vertex="1">
          <mxGeometry y="50" width="180" height="90" as="geometry" />
        </mxCell>
        <mxCell id="GN8UNdKCPaGdzjbhuaC8-5" value="" style="endArrow=open;startArrow=circlePlus;endFill=0;startFill=0;endSize=8;html=1;rounded=0;exitX=1;exitY=0.5;exitDx=0;exitDy=0;entryX=0.5;entryY=0;entryDx=0;entryDy=0;" parent="RDQSzWo8FJggzqwJXyAk-1" source="RDQSzWo8FJggzqwJXyAk-3" target="GN8UNdKCPaGdzjbhuaC8-3" edge="1">
          <mxGeometry width="160" relative="1" as="geometry">
            <mxPoint x="1160" y="93" as="sourcePoint" />
            <mxPoint x="1768" y="231" as="targetPoint" />
          </mxGeometry>
        </mxCell>
        <mxCell id="GN8UNdKCPaGdzjbhuaC8-6" value="&amp;lt;&amp;lt;requirement&amp;gt;&amp;gt;&lt;br&gt;&lt;b&gt;Mesures de température entrée-sortie cheminée&lt;/b&gt;" style="swimlane;fontStyle=0;align=center;verticalAlign=top;childLayout=stackLayout;horizontal=1;startSize=50;horizontalStack=0;resizeParent=1;resizeParentMax=0;resizeLast=0;collapsible=0;marginBottom=0;html=1;whiteSpace=wrap;" parent="RDQSzWo8FJggzqwJXyAk-1" vertex="1">
          <mxGeometry x="270" y="290" width="180" height="140" as="geometry" />
        </mxCell>
        <mxCell id="GN8UNdKCPaGdzjbhuaC8-7" value="Id = &quot;1.1.2&quot;&lt;br&gt;Text = &quot;Mesure de température : plage Température d’entrée : 100 °C à 350 °C Température de sortie 50 °C à 200 °C&quot;" style="text;html=1;strokeColor=none;fillColor=none;align=left;verticalAlign=middle;spacingLeft=4;spacingRight=4;overflow=hidden;rotatable=0;points=[[0,0.5],[1,0.5]];portConstraint=eastwest;whiteSpace=wrap;" parent="GN8UNdKCPaGdzjbhuaC8-6" vertex="1">
          <mxGeometry y="50" width="180" height="90" as="geometry" />
        </mxCell>
        <mxCell id="GN8UNdKCPaGdzjbhuaC8-8" value="&amp;lt;&amp;lt;requirement&amp;gt;&amp;gt;&lt;br&gt;&lt;b&gt;Mesures du taux de CO₂&amp;nbsp;&lt;/b&gt;" style="swimlane;fontStyle=0;align=center;verticalAlign=top;childLayout=stackLayout;horizontal=1;startSize=50;horizontalStack=0;resizeParent=1;resizeParentMax=0;resizeLast=0;collapsible=0;marginBottom=0;html=1;whiteSpace=wrap;" parent="RDQSzWo8FJggzqwJXyAk-1" vertex="1">
          <mxGeometry x="480" y="370" width="180" height="120" as="geometry" />
        </mxCell>
        <mxCell id="GN8UNdKCPaGdzjbhuaC8-9" value="Id = &quot;1.1.3&quot;&lt;br&gt;Text = &quot;Mesure du taux de CO₂ : plage 0 % à 20 %&quot;" style="text;html=1;strokeColor=none;fillColor=none;align=left;verticalAlign=middle;spacingLeft=4;spacingRight=4;overflow=hidden;rotatable=0;points=[[0,0.5],[1,0.5]];portConstraint=eastwest;whiteSpace=wrap;" parent="GN8UNdKCPaGdzjbhuaC8-8" vertex="1">
          <mxGeometry y="50" width="180" height="70" as="geometry" />
        </mxCell>
        <mxCell id="GN8UNdKCPaGdzjbhuaC8-10" value="&amp;lt;&amp;lt;refine&amp;gt;&amp;gt;" style="endArrow=open;endSize=12;dashed=1;html=1;rounded=0;entryX=0.147;entryY=1.01;entryDx=0;entryDy=0;exitX=0.25;exitY=0;exitDx=0;exitDy=0;entryPerimeter=0;" parent="RDQSzWo8FJggzqwJXyAk-1" source="GN8UNdKCPaGdzjbhuaC8-1" target="RDQSzWo8FJggzqwJXyAk-21" edge="1">
          <mxGeometry width="160" relative="1" as="geometry">
            <mxPoint x="140" y="550" as="sourcePoint" />
            <mxPoint x="380" y="380" as="targetPoint" />
          </mxGeometry>
        </mxCell>
        <mxCell id="GN8UNdKCPaGdzjbhuaC8-11" value="&amp;lt;&amp;lt;refine&amp;gt;&amp;gt;" style="endArrow=open;endSize=12;dashed=1;html=1;rounded=0;entryX=0.556;entryY=1.04;entryDx=0;entryDy=0;exitX=0.25;exitY=0;exitDx=0;exitDy=0;entryPerimeter=0;" parent="RDQSzWo8FJggzqwJXyAk-1" source="GN8UNdKCPaGdzjbhuaC8-6" target="RDQSzWo8FJggzqwJXyAk-21" edge="1">
          <mxGeometry width="160" relative="1" as="geometry">
            <mxPoint x="220" y="464" as="sourcePoint" />
            <mxPoint x="301" y="340" as="targetPoint" />
          </mxGeometry>
        </mxCell>
        <mxCell id="GN8UNdKCPaGdzjbhuaC8-12" value="&amp;lt;&amp;lt;refine&amp;gt;&amp;gt;" style="endArrow=open;endSize=12;dashed=1;html=1;rounded=0;entryX=0.999;entryY=1;entryDx=0;entryDy=0;exitX=0.5;exitY=0;exitDx=0;exitDy=0;entryPerimeter=0;" parent="RDQSzWo8FJggzqwJXyAk-1" source="GN8UNdKCPaGdzjbhuaC8-8" target="RDQSzWo8FJggzqwJXyAk-21" edge="1">
          <mxGeometry width="160" relative="1" as="geometry">
            <mxPoint x="375" y="450" as="sourcePoint" />
            <mxPoint x="300" y="342" as="targetPoint" />
          </mxGeometry>
        </mxCell>
        <mxCell id="GN8UNdKCPaGdzjbhuaC8-15" value="&amp;lt;&amp;lt;block&amp;gt;&amp;gt;&lt;br&gt;&lt;b&gt;Capteurs&lt;/b&gt;" style="swimlane;fontStyle=0;align=center;verticalAlign=top;childLayout=stackLayout;horizontal=1;startSize=50;horizontalStack=0;resizeParent=1;resizeParentMax=0;resizeLast=0;collapsible=0;marginBottom=0;html=1;whiteSpace=wrap;" parent="RDQSzWo8FJggzqwJXyAk-1" vertex="1">
          <mxGeometry x="214" y="690" width="180" height="80" as="geometry" />
        </mxCell>
        <mxCell id="GN8UNdKCPaGdzjbhuaC8-17" value="&amp;lt;&amp;lt;satisfy&amp;gt;&amp;gt;" style="endArrow=open;endSize=12;dashed=1;html=1;rounded=0;entryX=0.444;entryY=1.033;entryDx=0;entryDy=0;exitX=0.5;exitY=0;exitDx=0;exitDy=0;entryPerimeter=0;" parent="RDQSzWo8FJggzqwJXyAk-1" source="GN8UNdKCPaGdzjbhuaC8-15" target="GN8UNdKCPaGdzjbhuaC8-7" edge="1">
          <mxGeometry width="160" relative="1" as="geometry">
            <mxPoint x="473" y="685" as="sourcePoint" />
            <mxPoint x="313" y="550" as="targetPoint" />
          </mxGeometry>
        </mxCell>
        <mxCell id="GN8UNdKCPaGdzjbhuaC8-18" value="&amp;lt;&amp;lt;satisfy&amp;gt;&amp;gt;" style="endArrow=open;endSize=12;dashed=1;html=1;rounded=0;entryX=0.45;entryY=1.06;entryDx=0;entryDy=0;exitX=1;exitY=0.5;exitDx=0;exitDy=0;entryPerimeter=0;" parent="RDQSzWo8FJggzqwJXyAk-1" source="GN8UNdKCPaGdzjbhuaC8-15" target="GN8UNdKCPaGdzjbhuaC8-9" edge="1">
          <mxGeometry width="160" relative="1" as="geometry">
            <mxPoint x="460" y="690" as="sourcePoint" />
            <mxPoint x="469" y="580" as="targetPoint" />
          </mxGeometry>
        </mxCell>
        <mxCell id="GN8UNdKCPaGdzjbhuaC8-20" value="&amp;lt;&amp;lt;satisfy&amp;gt;&amp;gt;" style="endArrow=open;endSize=12;dashed=1;html=1;rounded=0;entryX=0.556;entryY=1.059;entryDx=0;entryDy=0;exitX=0;exitY=0.5;exitDx=0;exitDy=0;entryPerimeter=0;" parent="RDQSzWo8FJggzqwJXyAk-1" source="GN8UNdKCPaGdzjbhuaC8-15" target="GN8UNdKCPaGdzjbhuaC8-2" edge="1">
          <mxGeometry width="160" relative="1" as="geometry">
            <mxPoint x="130" y="690" as="sourcePoint" />
            <mxPoint x="139" y="580" as="targetPoint" />
          </mxGeometry>
        </mxCell>
        <mxCell id="GN8UNdKCPaGdzjbhuaC8-25" value="&amp;lt;&amp;lt;requirement&amp;gt;&amp;gt;&lt;br&gt;&lt;b&gt;Mesure l&#39;humidité des fumées&lt;/b&gt;" style="swimlane;fontStyle=0;align=center;verticalAlign=top;childLayout=stackLayout;horizontal=1;startSize=50;horizontalStack=0;resizeParent=1;resizeParentMax=0;resizeLast=0;collapsible=0;marginBottom=0;html=1;whiteSpace=wrap;" parent="RDQSzWo8FJggzqwJXyAk-1" vertex="1">
          <mxGeometry x="580" y="200" width="180" height="130" as="geometry" />
        </mxCell>
        <mxCell id="GN8UNdKCPaGdzjbhuaC8-26" value="Id = &quot;1.1.4&quot;&lt;br&gt;Text = &quot;Mesure d&#39;humidité : plage 0 à 100 %&quot;" style="text;html=1;strokeColor=none;fillColor=none;align=left;verticalAlign=middle;spacingLeft=4;spacingRight=4;overflow=hidden;rotatable=0;points=[[0,0.5],[1,0.5]];portConstraint=eastwest;whiteSpace=wrap;" parent="GN8UNdKCPaGdzjbhuaC8-25" vertex="1">
          <mxGeometry y="50" width="180" height="80" as="geometry" />
        </mxCell>
        <mxCell id="GN8UNdKCPaGdzjbhuaC8-27" value="&amp;lt;&amp;lt;refine&amp;gt;&amp;gt;" style="endArrow=open;endSize=12;dashed=1;html=1;rounded=0;entryX=1;entryY=0.26;entryDx=0;entryDy=0;exitX=0;exitY=0.5;exitDx=0;exitDy=0;entryPerimeter=0;" parent="RDQSzWo8FJggzqwJXyAk-1" source="GN8UNdKCPaGdzjbhuaC8-26" target="RDQSzWo8FJggzqwJXyAk-21" edge="1">
          <mxGeometry width="160" relative="1" as="geometry">
            <mxPoint x="610" y="405" as="sourcePoint" />
            <mxPoint x="470" y="200" as="targetPoint" />
          </mxGeometry>
        </mxCell>
        <mxCell id="GN8UNdKCPaGdzjbhuaC8-28" value="&amp;lt;&amp;lt;satisfy&amp;gt;&amp;gt;" style="endArrow=open;endSize=12;dashed=1;html=1;rounded=0;entryX=0.611;entryY=1;entryDx=0;entryDy=0;exitX=1.001;exitY=0.652;exitDx=0;exitDy=0;entryPerimeter=0;exitPerimeter=0;edgeStyle=orthogonalEdgeStyle;" parent="RDQSzWo8FJggzqwJXyAk-1" target="GN8UNdKCPaGdzjbhuaC8-26" edge="1">
          <mxGeometry width="160" relative="1" as="geometry">
            <mxPoint x="394.00000000000006" y="742.1600000000001" as="sourcePoint" />
            <mxPoint x="754.8800000000005" y="299.9999999999999" as="targetPoint" />
            <Array as="points">
              <mxPoint x="395" y="742" />
              <mxPoint x="395" y="740" />
              <mxPoint x="690" y="740" />
            </Array>
          </mxGeometry>
        </mxCell>
      </root>
    </mxGraphModel>
  </diagram>
</mxfile>
